Description

Sinopse e detalhes

Che Guevara (Gael García Bernal) era um jovem estudante de Medicana que, em 1952, decide viajar pela América do Sul com seu amigo Alberto Granado (Rodrigo de la Serna). A viagem é realizada em uma moto, que acaba quebrando após 8 meses. Eles então passam a seguir viagem através de caronas e caminhadas, sempre conhecendo novos lugares. Porém, quando chegam a Machu Pichu, a dupla conhece uma colônia de leprosos e passam a questionar a validade do progresso econômico da região, que privilegia apenas uma pequena parte da população.


Format : Matroska
Format version : Version 2
File size : 952 MiB
Duration : 2h 5mn
Overall bit rate : 1 058 Kbps
Encoded date : UTC 2013-05-01 15:12:16
Writing application : mkvmerge v6.1.0 ('Old Devil') built on Mar 2 2013 14:32:37
Writing library : libebml v1.3.0 + libmatroska v1.4.0

Video
ID : 1
Format : AVC
Format/Info : Advanced Video Codec
Format profile : High@L4.1
Format settings, CABAC : Yes
Format settings, ReFrames : 4 frames
Codec ID : V_MPEG4/ISO/AVC
Duration : 2h 5mn
Bit rate : 410 Kbps
Width : 704 pixels
Height : 368 pixels
Display aspect ratio : 1.913
Frame rate mode : Constant
Frame rate : 23.976 fps
Color space : YUV
Chroma subsampling : 4:2:0
Bit depth : 8 bits
Scan type : Progressive
Bits/(Pixel*Frame) : 0.066
Stream size : 357 MiB (38%)
Writing library : x264 core 130 r2273 b3065e6
Encoding settings : cabac=1 / ref=3 / deblock=1:0:0 / analyse=0x3:0x113 / me=hex / subme=7 / psy=1 / psy_rd=1.00:0.00 / mixed_ref=1 / me_range=16 / chroma_me=1 / trellis=1 / 8x8dct=1 / cqm=0 / deadzone=21,11 / fast_pskip=1 / chroma_qp_offset=-2 / threads=3 / lookahead_threads=1 / sliced_threads=0 / nr=0 / decimate=1 / interlaced=0 / bluray_compat=0 / constrained_intra=0 / bframes=3 / b_pyramid=2 / b_adapt=1 / b_bias=0 / direct=1 / weightb=1 / open_gop=0 / weightp=2 / keyint=240 / keyint_min=23 / scenecut=40 / intra_refresh=0 / rc_lookahead=40 / rc=2pass / mbtree=1 / bitrate=410 / ratetol=1.0 / qcomp=0.60 / qpmin=0 / qpmax=69 / qpstep=4 / cplxblur=20.0 / qblur=0.5 / vbv_maxrate=62500 / vbv_bufsize=78125 / nal_hrd=none / ip_ratio=1.40 / aq=1:1.00
Default : Yes
Forced : No

Audio #1
ID : 2
Format : AC-3
Format/Info : Audio Coding 3
Format profile : Dolby Digital
Mode extension : CM (complete main)
Format settings, Endianness : Big
Codec ID : A_AC3
Duration : 2h 5mn
Bit rate mode : Constant
Bit rate : 192 Kbps
Channel(s) : 2 channels
Channel positions : Front: L R
Sampling rate : 48.0 KHz
Bit depth : 16 bits
Compression mode : Lossy
Stream size : 173 MiB (18%)
Title : by fantasma
Language : Portuguese
Default : Yes
Forced : No

Audio #2
ID : 3
Format : AC-3
Format/Info : Audio Coding 3
Mode extension : CM (complete main)
Format settings, Endianness : Big
Codec ID : A_AC3
Duration : 2h 5mn
Bit rate mode : Constant
Bit rate : 448 Kbps
Channel(s) : 6 channels
Channel positions : Front: L C R, Side: L R, LFE
Sampling rate : 48.0 KHz
Bit depth : 16 bits
Compression mode : Lossy
Stream size : 403 MiB (42%)
Title : by fantasma
Language : Spanish
Default : No
Forced : No

Text #1
ID : 4
Format : VobSub
Muxing mode : zlib
Codec ID : S_VOBSUB
Codec ID/Info : The same subtitle format used on DVDs
Title : by fantasma
Language : English
Default : No
Forced : No

Text #2
ID : 5
Format : VobSub
Muxing mode : zlib
Codec ID : S_VOBSUB
Codec ID/Info : The same subtitle format used on DVDs
Title : by fantasma
Language : Spanish
Default : No
Forced : No

Text #3
ID : 6
Format : VobSub
Muxing mode : zlib
Codec ID : S_VOBSUB
Codec ID/Info : The same subtitle format used on DVDs
Title : by fantasma
Language : Portuguese
Default : No
Forced : No

Text #4
ID : 7
Format : VobSub
Muxing mode : zlib
Codec ID : S_VOBSUB
Codec ID/Info : The same subtitle format used on DVDs
Title : by fantasma
Language : Portuguese
Default : No
Forced : No

Menu
00:00:00.000 : en:Chapter 01
00:03:56.901 : en:Chapter 02
00:09:10.201 : en:Chapter 03
00:18:58.301 : en:Chapter 04
00:30:19.368 : en:Chapter 05
00:41:46.035 : en:Chapter 06
00:50:31.669 : en:Chapter 07
00:56:25.737 : en:Chapter 08
01:06:21.870 : en:Chapter 09
01:21:35.537 : en:Chapter 10
01:50:42.971 : en:Chapter 11
01:57:45.138 : en:Chapter 12
02:05:42.672 : en:Chapter 13